<svg xmlns="http://www.w3.org/2000/svg" width="900" height="520" viewBox="0 0 900 520">
<defs><linearGradient id="bg" x1="0" y1="0" x2="1" y2="1"><stop offset="0" stop-color="#eef8ff"/><stop offset="1" stop-color="#fff7dc"/></linearGradient><filter id="shadow"><feDropShadow dx="0" dy="8" stdDeviation="5" flood-opacity="0.20"/></filter></defs>
<rect width="900" height="520" rx="28" fill="url(#bg)"/>
<rect x="28" y="28" width="844" height="464" rx="22" fill="white" opacity=".72"/>
<text x="56" y="74" font-family="Arial, 'Microsoft JhengHei', sans-serif" font-size="34" font-weight="700" fill="#263238">傳動機構 Transmission</text>
<text x="56" y="112" font-family="Arial, 'Microsoft JhengHei', sans-serif" font-size="20" fill="#546e7a">把馬達動力傳到目標零件，完成指定動作</text>
<g filter="url(#shadow)"><polygon points="309.1,270.0 293.5,284.5 301.3,304.3 280.9,310.6 279.3,331.8 258.2,328.7 247.6,347.1 230.0,335.1 212.4,347.1 201.8,328.7 180.7,331.8 179.1,310.6 158.7,304.3 166.5,284.5 150.9,270.0 166.5,255.5 158.7,235.7 179.1,229.4 180.7,208.2 201.8,211.3 212.4,192.9 230.0,204.9 247.6,192.9 258.2,211.3 279.3,208.2 280.9,229.4 301.3,235.7 293.5,255.5" fill="#ffe082" stroke="#2b2b2b" stroke-width="5" stroke-linejoin="round"/><circle cx="230" cy="270" r="20" fill="#fff7df" stroke="#2b2b2b" stroke-width="5"/><polygon points="462.1,270.0 449.4,283.2 453.8,301.1 436.2,306.2 431.1,323.8 413.2,319.4 400.0,332.1 386.8,319.4 368.9,323.8 363.8,306.2 346.2,301.1 350.6,283.2 337.9,270.0 350.6,256.8 346.2,238.9 363.8,233.8 368.9,216.2 386.8,220.6 400.0,207.9 413.2,220.6 431.1,216.2 436.2,233.8 453.8,238.9 449.4,256.8" fill="#80deea" stroke="#2b2b2b" stroke-width="5" stroke-linejoin="round"/><circle cx="400" cy="270" r="16" fill="#fff7df" stroke="#2b2b2b" stroke-width="5"/><rect x="480" y="245" width="200" height="50" rx="25" fill="#c5e1a5" stroke="#263238" stroke-width="6"/><path d="M270 360 C360 420 545 420 640 345" fill="none" stroke="#455a64" stroke-width="12" stroke-linecap="round"/><path d="M155 270 h-70 M680 270 h100" stroke="#263238" stroke-width="10" stroke-linecap="round"/><text x="205" y="430" font-size="26" font-family="Arial, Microsoft JhengHei" fill="#263238">齒輪、皮帶、軸與連桿可組成傳動系統</text></g>
</svg>