<svg xmlns="http://www.w3.org/2000/svg" width="900" height="520" viewBox="0 0 900 520">
<defs><linearGradient id="bg" x1="0" y1="0" x2="1" y2="1"><stop offset="0" stop-color="#eef8ff"/><stop offset="1" stop-color="#fff7dc"/></linearGradient><filter id="shadow"><feDropShadow dx="0" dy="8" stdDeviation="5" flood-opacity="0.20"/></filter></defs>
<rect width="900" height="520" rx="28" fill="url(#bg)"/>
<rect x="28" y="28" width="844" height="464" rx="22" fill="white" opacity=".72"/>
<text x="56" y="74" font-family="Arial, 'Microsoft JhengHei', sans-serif" font-size="34" font-weight="700" fill="#263238">機構辨識與機械原理教學</text>
<text x="56" y="112" font-family="Arial, 'Microsoft JhengHei', sans-serif" font-size="20" fill="#546e7a">齒輪、蝸桿蝸輪、連桿、凸輪、軸、馬達與傳動機構</text>
<g filter="url(#shadow)"><g transform="translate(25,0)"><polygon points="348.1,275.0 331.1,289.2 341.4,308.7 320.3,315.3 322.3,337.3 300.3,335.3 293.7,356.4 274.2,346.1 260.0,363.1 245.8,346.1 226.3,356.4 219.7,335.3 197.7,337.3 199.7,315.3 178.6,308.7 188.9,289.2 171.9,275.0 188.9,260.8 178.6,241.3 199.7,234.7 197.7,212.7 219.7,214.7 226.3,193.6 245.8,203.9 260.0,186.9 274.2,203.9 293.7,193.6 300.3,214.7 322.3,212.7 320.3,234.7 341.4,241.3 331.1,260.8" fill="#ffe082" stroke="#2b2b2b" stroke-width="5" stroke-linejoin="round"/><circle cx="260" cy="275" r="24" fill="#fff7df" stroke="#2b2b2b" stroke-width="5"/><polygon points="470.5,275.0 457.1,289.0 461.8,307.8 443.1,313.1 437.8,331.8 419.0,327.1 405.0,340.5 391.0,327.1 372.2,331.8 366.9,313.1 348.2,307.8 352.9,289.0 339.5,275.0 352.9,261.0 348.2,242.2 366.9,236.9 372.2,218.2 391.0,222.9 405.0,209.5 419.0,222.9 437.8,218.2 443.1,236.9 461.8,242.2 457.1,261.0" fill="#80deea" stroke="#2b2b2b" stroke-width="5" stroke-linejoin="round"/><circle cx="405" cy="275" r="18" fill="#fff7df" stroke="#2b2b2b" stroke-width="5"/></g><path d="M535 205 L635 285 L735 205" fill="none" stroke="#455a64" stroke-width="18" stroke-linecap="round" stroke-linejoin="round"/><circle cx="535" cy="205" r="24" fill="#ffab91" stroke="#263238" stroke-width="5"/><circle cx="635" cy="285" r="24" fill="#ffab91" stroke="#263238" stroke-width="5"/><circle cx="735" cy="205" r="24" fill="#ffab91" stroke="#263238" stroke-width="5"/><rect x="120" y="380" width="660" height="12" rx="6" fill="#90a4ae"/><text x="210" y="430" font-size="28" font-family="Arial, Microsoft JhengHei" fill="#263238">辨識機構 → 理解原理 → 操作模型 → AI互動學習</text></g>
</svg>