<svg xmlns="http://www.w3.org/2000/svg" width="900" height="520" viewBox="0 0 900 520">
<defs><linearGradient id="bg" x1="0" y1="0" x2="1" y2="1"><stop offset="0" stop-color="#eef8ff"/><stop offset="1" stop-color="#fff7dc"/></linearGradient><filter id="shadow"><feDropShadow dx="0" dy="8" stdDeviation="5" flood-opacity="0.20"/></filter></defs>
<rect width="900" height="520" rx="28" fill="url(#bg)"/>
<rect x="28" y="28" width="844" height="464" rx="22" fill="white" opacity=".72"/>
<text x="56" y="74" font-family="Arial, 'Microsoft JhengHei', sans-serif" font-size="34" font-weight="700" fill="#263238">齒輪 Gear</text>
<text x="56" y="112" font-family="Arial, 'Microsoft JhengHei', sans-serif" font-size="20" fill="#546e7a">用齒與齒嚙合傳遞旋轉，可改變轉速、力量與方向</text>
<g filter="url(#shadow)"><polygon points="437.4,270.0 417.0,285.3 430.9,306.7 406.5,314.2 412.2,339.0 386.8,337.7 383.7,363.0 360.2,353.0 348.6,375.7 330.0,358.4 311.4,375.7 299.8,353.0 276.3,363.0 273.2,337.7 247.8,339.0 253.5,314.2 229.1,306.7 243.0,285.3 222.7,270.0 243.0,254.7 229.1,233.3 253.5,225.8 247.8,201.0 273.2,202.3 276.3,177.0 299.8,187.0 311.4,164.3 330.0,181.6 348.6,164.3 360.2,187.0 383.7,177.0 386.8,202.3 412.2,201.0 406.5,225.8 430.9,233.3 417.0,254.7" fill="#f6c85f" stroke="#2b2b2b" stroke-width="5" stroke-linejoin="round"/><circle cx="330" cy="270" r="30.400000000000002" fill="#fff7df" stroke="#2b2b2b" stroke-width="5"/><polygon points="604.8,270.0 588.0,285.5 596.4,306.8 574.5,313.5 572.8,336.3 550.3,332.8 538.9,352.6 520.0,339.8 501.1,352.6 489.7,332.8 467.2,336.3 465.5,313.5 443.6,306.8 452.0,285.5 435.2,270.0 452.0,254.5 443.6,233.2 465.5,226.5 467.2,203.7 489.7,207.2 501.1,187.4 520.0,200.2 538.9,187.4 550.3,207.2 572.8,203.7 574.5,226.5 596.4,233.2 588.0,254.5" fill="#8fd6e1" stroke="#2b2b2b" stroke-width="5" stroke-linejoin="round"/><circle cx="520" cy="270" r="24.0" fill="#fff7df" stroke="#2b2b2b" stroke-width="5"/><path d="M330 270 C395 210 450 210 520 270" fill="none" stroke="#607d8b" stroke-width="8" stroke-linecap="round" stroke-dasharray="14 14"/><text x="285" y="430" font-size="26" font-family="Arial, Microsoft JhengHei" fill="#263238">小齒輪帶大齒輪：轉速變慢、力量變大</text></g>
</svg>