<svg xmlns="http://www.w3.org/2000/svg" width="900" height="520" viewBox="0 0 900 520">
<defs><linearGradient id="bg" x1="0" y1="0" x2="1" y2="1"><stop offset="0" stop-color="#eef8ff"/><stop offset="1" stop-color="#fff7dc"/></linearGradient><filter id="shadow"><feDropShadow dx="0" dy="8" stdDeviation="5" flood-opacity="0.20"/></filter></defs>
<rect width="900" height="520" rx="28" fill="url(#bg)"/>
<rect x="28" y="28" width="844" height="464" rx="22" fill="white" opacity=".72"/>
<text x="56" y="74" font-family="Arial, 'Microsoft JhengHei', sans-serif" font-size="34" font-weight="700" fill="#263238">蝸桿與蝸輪 Worm Gear</text>
<text x="56" y="112" font-family="Arial, 'Microsoft JhengHei', sans-serif" font-size="20" fill="#546e7a">像螺絲帶動齒輪，適合低速、高扭力與定位</text>
<g filter="url(#shadow)"><g transform="translate(210 250)"><rect x="0" y="-34" width="300" height="68" rx="34" fill="#b3e5fc" stroke="#263238" stroke-width="5"/><path d="M25 -34 C60 34 95 -34 130 34 C165 -34 200 34 235 -34 C270 34 300 -20 320 12" fill="none" stroke="#0277bd" stroke-width="14" stroke-linecap="round"/></g><polygon points="704.0,255.0 684.5,268.4 698.9,287.1 676.2,293.8 684.1,316.1 660.5,315.5 661.1,339.1 638.8,331.2 632.1,353.9 613.4,339.5 600.0,359.0 586.6,339.5 567.9,353.9 561.2,331.2 538.9,339.1 539.5,315.5 515.9,316.1 523.8,293.8 501.1,287.1 515.5,268.4 496.0,255.0 515.5,241.6 501.1,222.9 523.8,216.2 515.9,193.9 539.5,194.5 538.9,170.9 561.2,178.8 567.9,156.1 586.6,170.5 600.0,151.0 613.4,170.5 632.1,156.1 638.8,178.8 661.1,170.9 660.5,194.5 684.1,193.9 676.2,216.2 698.9,222.9 684.5,241.6" fill="#ffd180" stroke="#2b2b2b" stroke-width="5" stroke-linejoin="round"/><circle cx="600" cy="255" r="28" fill="#fff7df" stroke="#2b2b2b" stroke-width="5"/><path d="M190 250 H95" stroke="#263238" stroke-width="10" stroke-linecap="round"/><path d="M730 255 h90" stroke="#263238" stroke-width="10" stroke-linecap="round"/><text x="240" y="430" font-size="26" font-family="Arial, Microsoft JhengHei" fill="#263238">常用於大減速與大扭力輸出</text></g>
</svg>